Coordinates
version=1
nRows=7
nColumns=33
inDegrees=yes

Units are S.I. units (second, meters, Newtons, ...)
Angles are in degrees.

endheader
time	ground_thorax_rot_x	ground_thorax_rot_y	ground_thorax_rot_z	ground_thorax_tx	ground_thorax_ty	ground_thorax_tz	clav_prot_r	clav_elev_r	scapula_abduction_r	scapula_elevation_r	scapula_upward_rot_r	scapula_winging_r	shoulder_elv_r	plane_of_elev_r	axial_rot_r	elbow_flexion_r	pro_sup_r	wrist_flex_r	wrist_dev_r	clav_prot_l	clav_elev_l	scapula_abduction_l	scapula_elevation_l	scapula_upward_rot_l	scapula_winging_l	shoulder_elv_l	plane_of_elev_l	axial_rot_l	elbow_flexion_l	pro_sup_l	wrist_flex_l	wrist_dev_l
      5.16000000	    -37.84144733	     -2.04372253	      6.76322996	    -44.16893284	    799.39871804	      2.60129764	     -4.92675444	    -45.00000000	     45.00000000	    -45.00000000	     24.70685891	  -5148.74636681	  -2818.75077795	     19.88156617	   -179.99999979	   3245.21633678	   -103.51537395	     14.36680861	     11.15155301	     17.50915972	     40.61434852	    -45.00000000	    -41.21208106	    -32.07305914	   4397.43622664	  -6053.83020356	     24.31263971	    -26.45046825	   3246.73743772	     10.86286768	     14.73436873	    -18.71512060
      5.17000000	    -37.43945072	     -2.62516950	      7.23281991	    -42.66170201	    797.21038606	      2.98560926	     -4.16325116	    -45.00000000	     45.00000000	    -45.00000000	     22.76836938	  -5148.35874062	  -2818.94444237	     20.12264075	   -179.99999979	   3245.13564076	   -103.60950929	     14.37105249	     10.97900137	     17.07573641	     39.53563538	    -45.00000000	    -40.38193151	    -32.42349759	   4397.72030468	  -6053.75912928	     24.32709760	    -27.12073977	   3246.57862991	     11.12251716	     14.76425691	    -18.77129539
      5.18000000	    -37.18959676	     -2.83966036	      7.32810079	    -41.42735820	    795.29553369	      3.35718735	     -4.02832205	    -45.00000000	     45.00000000	    -45.00000000	     22.27865361	  -5148.17437764	  -2818.91758499	     20.06052630	   -179.99999979	   3245.12403415	   -103.97321769	     14.13034982	     10.88981657	     17.06715080	     39.31198747	    -45.00000000	    -39.92860961	    -32.14041673	   4397.64664046	  -6053.89935307	     24.16992869	    -27.44372841	   3246.34849840	     11.34026508	     14.75070849	    -18.66224456
      5.19000000	    -36.97642457	     -2.89012138	      7.27022664	    -40.48483969	    793.66054519	      3.69865590	     -4.03141464	    -45.00000000	     45.00000000	    -45.00000000	     22.06474442	  -5148.06127869	  -2818.80559392	     19.99651014	   -179.99999979	   3245.11712936	   -104.48859715	     13.91133668	     10.81976965	     17.02184586	     39.15916797	    -45.00000000	    -39.53681563	    -31.68357554	   4397.62316429	  -6054.09030129	     24.07126559	    -27.77626999	   3246.13433519	     11.54553057	     14.71220260	    -18.58571913
      5.20000000	    -36.81184094	     -3.00930899	      7.16232365	    -39.84340028	    792.30947865	      3.99776050	     -4.04054903	    -45.00000000	     45.00000000	    -45.00000000	     21.87695568	  -5147.94612078	  -2818.74709166	     19.92770498	   -179.99999979	   3245.15325374	   -105.06278754	     13.69477173	     10.76980221	     16.95394880	     38.94770977	    -45.00000000	    -39.16510732	    -31.29135919	   4397.63351750	  -6054.16459049	     23.93837456	    -28.06346195	   3245.95390057	     11.73427423	     14.66866587	    -18.51626441
      5.21000000	    -36.65576435	     -3.25948765	      7.11325181	    -39.50726071	    791.23523887	      4.24442417	     -4.02824965	    -45.00000000	     45.00000000	    -45.00000000	     21.62546732	  -5147.83355552	  -2818.68009949	     19.86187769	   -179.99999979	   3245.17326437	   -105.56396750	     13.41616814	     10.70745445	     16.91204918	     38.47783671	    -45.00000000	    -38.84581776	    -30.99360793	   4397.74692633	  -6054.26531316	     23.75181829	    -28.28578128	   3245.84073432	     11.89445429	     14.59631532	    -18.45700868
      5.22000000	    -36.48164792	     -3.51599730	      7.06849517	    -39.47583156	    790.41518622	      4.43227547	     -3.98026303	    -45.00000000	     45.00000000	    -45.00000000	     21.41397694	  -5147.75092080	  -2818.56347323	     19.86925489	   -179.99999979	   3245.31742455	   -106.00522154	     13.27245524	     10.73832052	     16.80888610	     38.70833135	    -45.00000000	    -38.43109879	    -30.68159304	   4397.94575303	  -6054.30610779	     23.57459675	    -28.34065718	   3245.79182310	     11.99438816	     14.29708995	    -18.46856997
